<?xml version="1.0" encoding="utf-8"?>
<!-- Generator: Adobe Illustrator 15.0.0, SVG Export Plug-In . SVG Version: 6.00 Build 0)  -->
<!DOCTYPE svg PUBLIC "-//W3C//DTD SVG 1.1//EN" "http://www.w3.org/Graphics/SVG/1.1/DTD/svg11.dtd">
<svg version="1.1" id="Layer_1" xmlns="http://www.w3.org/2000/svg" xmlns:xlink="http://www.w3.org/1999/xlink" x="0px" y="0px"
	 width="300px" height="140px" viewBox="0 0 300 140" enable-background="new 0 0 300 140" xml:space="preserve">
<path fill="#666666" d="M172.276,116.864l-7.609-19.983v19.983h-4.646V76.201h4.646v19.692l8.017-19.692h4.938l-8.363,19.982
	l8.131,20.681H172.276z"/>
<path fill="#666666" d="M184.731,116.864h-4.646V76.201h4.646V116.864z"/>
<path fill="#666666" d="M193.627,116.864V80.5h-6.099v-4.298h16.846V80.5h-6.101v36.365L193.627,116.864L193.627,116.864z"/>
<path fill="#666666" d="M223.945,101.238v8.422c0,5.056-2.497,7.554-7.553,7.554h-1.508c-5.056,0-7.554-2.498-7.554-7.554V83.404
	c0-5.053,2.498-7.553,7.554-7.553h1.508c4.997,0,7.438,2.441,7.438,7.437v7.319h-4.531v-7.436c0-2.092-0.987-3.078-3.079-3.078
	h-1.162c-2.091,0-3.078,0.986-3.078,3.078v26.723c0,2.09,0.987,3.079,3.078,3.079h1.279c2.09,0,3.077-0.989,3.077-3.079v-8.656
	H223.945z"/>
<path fill="#666666" d="M239.029,93.918V76.201h4.646v40.663h-4.646v-18.59h-7.552v18.59h-4.647V76.201h4.647v17.717H239.029z"/>
<path fill="#666666" d="M259.843,76.201v4.297h-8.134v13.478h7.844v4.241h-7.844v14.348h8.25v4.299h-12.896V76.201H259.843z"/>
<path fill="#666666" d="M276.361,76.201h4.414v40.663h-5.81l-7.318-31.775v31.775h-4.415V76.201h6.389l6.74,29.451V76.201z"/>
<path fill="#666666" d="M300,103.736v5.924c0,5.056-2.498,7.554-7.552,7.554h-1.278c-4.997,0-7.436-2.498-7.436-7.437v-8.539h4.531
	v8.714c0,2.091,0.987,3.079,3.078,3.079h0.931c2.092,0,3.079-0.988,3.079-3.079v-6.1c0-2.033-0.697-2.905-2.033-3.893l-5.693-4.124
	c-3.021-2.149-3.891-4.24-3.891-7.552v-4.88c0-5.053,2.497-7.553,7.551-7.553h1.162c4.995,0,7.435,2.498,7.435,7.437v7.319h-4.53
	v-7.495c0-2.09-0.987-3.078-3.079-3.078h-0.814c-2.091,0-3.077,0.988-3.077,3.078v5.112c0,2.034,0.755,2.906,2.091,3.893
	l5.634,4.066C299.069,98.334,300,100.25,300,103.736z"/>
<path fill="#666666" d="M172.51,23.21v4.299h-7.844v13.593h7.553v4.241h-7.553v18.531h-4.647V23.21H172.51z"/>
<path fill="#666666" d="M184.614,64.222h-1.742c-5.054,0-7.551-2.498-7.551-7.553V30.414c0-5.055,2.497-7.553,7.551-7.553h1.742
	c5.055,0,7.553,2.498,7.553,7.553v26.256C192.167,61.725,189.669,64.222,184.614,64.222z M184.441,27.101h-1.396
	c-2.091,0-3.078,0.988-3.078,3.079v26.721c0,2.091,0.987,3.079,3.078,3.079h1.396c2.091,0,3.077-0.988,3.077-3.079v-26.72
	C187.519,28.09,186.532,27.101,184.441,27.101z"/>
<path fill="#666666" d="M211.976,56.669c0,5.054-2.498,7.553-7.553,7.553h-1.452c-5.052,0-7.551-2.498-7.551-7.553V23.21h4.646
	v33.692c0,2.091,0.989,3.079,3.08,3.079h1.104c2.091,0,3.079-0.988,3.079-3.079V23.21h4.648v33.459H211.976z"/>
<path fill="#666666" d="M231.322,50.164v13.709h-4.647V50.337c0-2.439-1.103-3.543-3.543-3.543h-3.428v17.079h-4.646V23.21h8.655
	c5.055,0,7.552,2.498,7.552,7.552v7.552c0,3.66-1.278,5.46-3.602,6.391C230.218,45.4,231.322,47.028,231.322,50.164z M223.539,27.45
	h-3.835v15.22h3.486c2.324,0,3.427-1.104,3.427-3.427V30.53C226.617,28.438,225.63,27.45,223.539,27.45z"/>
<circle fill="#35AA4E" cx="70.996" cy="69.996" r="69.996"/>
<g id="bracket_1_">
	<path fill="#FFFFFF" d="M89.366,50.976v-8.428c0-8.53,2.207-12.947,10.942-12.947h2.104v-6.524h-3.411
		c-11.946,0-17.764,6.424-17.764,18.667v7.125c0,10.339-2.811,17.464-13.247,17.464h-0.905v7.219h0.905
		c10.335,0,13.247,7.326,13.247,17.46v7.229c0,12.041,5.617,18.667,17.764,18.667h3.411v-6.522h-2.104
		c-8.735,0-10.942-4.414-10.942-12.949v-8.423c0-10.04-4.116-16.059-12.749-18.969C85.152,67.032,89.366,61.212,89.366,50.976z"/>
</g>
<g id="knife_1_">
	<g>
		<path fill="#FFFFFF" d="M60.821,85.96V48.771c0-15.615-1.461-26.555-1.461-26.555S48.877,29.602,44.321,50.1
			c-3.605,16.229-4.742,33.7-4.742,33.7s13.665-0.098,14.488,1.641c0.813,1.736-0.858,6.587-0.858,12.214
			c0,5.626,0.717,8.248,0.102,10.395c-0.612,2.153-2.085,2.699-2.15,3.685c-0.062,0.985,0.105,6.042,5.323,6.042
			c1.449,0,3.573-1.392,3.983-5.008C61.136,106.847,61.327,95.076,60.821,85.96z M56.399,113.622c-0.669,0-1.209-0.54-1.209-1.208
			s0.54-1.211,1.209-1.211c0.672,0,1.212,0.543,1.212,1.211S57.071,113.622,56.399,113.622z M57.375,103.021
			c-0.67,0-1.21-0.541-1.21-1.211c0-0.669,0.54-1.209,1.21-1.209c0.667,0,1.212,0.54,1.212,1.209
			C58.586,102.478,58.043,103.021,57.375,103.021z M57.559,92.722c-0.664,0-1.207-0.546-1.207-1.209c0-0.67,0.543-1.213,1.207-1.213
			c0.671,0,1.21,0.541,1.21,1.213C58.77,92.176,58.229,92.722,57.559,92.722z"/>
	</g>
</g>
</svg>
